<svg id="Layer_1" data-name="Layer 1" xmlns="http://www.w3.org/2000/svg" width="162" height="174.56" viewBox="0 0 162 174.56"><title>calendar</title><path d="M142.63,13.56H121V6.07A6,6,0,1,0,109,6v7.56H54V6.07A6,6,0,1,0,42,6v7.56H19.37A19.39,19.39,0,0,0,0,32.92V155.19a19.39,19.39,0,0,0,19.37,19.37H142.63A19.39,19.39,0,0,0,162,155.19V32.92A19.39,19.39,0,0,0,142.63,13.56ZM12,59.56H150v95.63a7.37,7.37,0,0,1-7.37,7.37H19.37A7.37,7.37,0,0,1,12,155.19ZM46.13,39.41A6.29,6.29,0,0,0,48,39.7a6,6,0,0,0,3.55-1.16A6,6,0,0,0,54,33.7V25.56h55v8.07a6.05,6.05,0,0,0,4.13,5.78,6.29,6.29,0,0,0,1.88.29,6,6,0,0,0,3.55-1.16A6,6,0,0,0,121,33.7V25.56h21.63A7.37,7.37,0,0,1,150,32.92V47.56H12V32.92a7.37,7.37,0,0,1,7.37-7.37H42v8.07A6.05,6.05,0,0,0,46.13,39.41Z"/><circle cx="33.95" cy="81.43" r="6.66"/><circle cx="65.4" cy="81.43" r="6.66"/><circle cx="96.85" cy="81.43" r="6.66"/><circle cx="128.3" cy="81.43" r="6.66"/><circle cx="33.95" cy="110.3" r="6.66"/><circle cx="65.4" cy="110.3" r="6.66"/><circle cx="96.85" cy="110.3" r="6.66"/><circle cx="128.3" cy="110.3" r="6.66"/><circle cx="33.95" cy="139.18" r="6.66"/><circle cx="65.4" cy="139.18" r="6.66"/><circle cx="96.85" cy="139.18" r="6.66"/></svg>