<svg id="Layer_1" data-name="Layer 1" xmlns="http://www.w3.org/2000/svg" width="34.11" height="34.11" viewBox="0 0 34.11 34.11"><defs><style>.cls-1{fill:#334d5e;}</style></defs><title>clock</title><path class="cls-1" d="M17.06,34.11A17.05,17.05,0,1,1,34.11,17.05,17.07,17.07,0,0,1,17.06,34.11Zm0-32.67A15.61,15.61,0,1,0,32.67,17.05,15.63,15.63,0,0,0,17.06,1.44Z"/><path class="cls-1" d="M18.54,16.66A.72.72,0,0,1,18,15.43l7.86-7.86a.72.72,0,0,1,1,1l-7.86,7.86A.72.72,0,0,1,18.54,16.66Z"/><path class="cls-1" d="M15.49,17.08a.71.71,0,0,1-.36-.1L9.05,13.48a.72.72,0,0,1,.72-1.25l6.08,3.51a.72.72,0,0,1-.36,1.34Z"/><path class="cls-1" d="M17.06,19.62a2.56,2.56,0,1,1,2.56-2.56A2.57,2.57,0,0,1,17.06,19.62Zm0-3.69a1.12,1.12,0,1,0,1.12,1.13A1.13,1.13,0,0,0,17.06,15.93Z"/><path class="cls-1" d="M17,6.61a.72.72,0,0,1-.72-.72v-1a.72.72,0,0,1,1.44,0v1A.72.72,0,0,1,17,6.61Z"/><path class="cls-1" d="M6,17.61H5a.72.72,0,1,1,0-1.44H6a.72.72,0,1,1,0,1.44Z"/><path class="cls-1" d="M17,30.61a.72.72,0,0,1-.72-.72v-2a.72.72,0,0,1,1.44,0v2A.72.72,0,0,1,17,30.61Z"/><path class="cls-1" d="M30,17.61H28a.72.72,0,1,1,0-1.44h2a.72.72,0,1,1,0,1.44Z"/></svg>