<svg id="Layer_3" data-name="Layer 3" xmlns="http://www.w3.org/2000/svg" width="22.23" height="22.23" viewBox="0 0 22.23 22.23"><title>phone</title><path d="M17.83,22.23A17.75,17.75,0,0,1,5.55,16.75,17.67,17.67,0,0,1,0,4.08V3.91l.1-.13A11.9,11.9,0,0,1,1,2.73,11.68,11.68,0,0,1,5.11.08,1.3,1.3,0,0,1,5.58,0C6.11,0,7,.28,7.17.79,7.71,2.3,8.4,4.26,8.89,6.14a2,2,0,0,1-.52,1.73L6.6,9a.45.45,0,0,0-.19.31,1.38,1.38,0,0,0,.29,1,25.57,25.57,0,0,0,2.41,2.82,25,25,0,0,0,2.81,2.39c.48.35,1.15.39,1.32.11l1.13-1.78c.29-.45,1.13-.55,1.43-.55a1.31,1.31,0,0,1,.28,0,24.71,24.71,0,0,1,5.4,1.74,1.94,1.94,0,0,1,.68,2,11.7,11.7,0,0,1-2.64,4.06,12,12,0,0,1-1.06.93l-.13.1ZM1,4.27A16.65,16.65,0,0,0,6.19,16l.07.07a16.74,16.74,0,0,0,11.57,5.18H18a10.83,10.83,0,0,0,.84-.75,10.7,10.7,0,0,0,2.42-3.72A1.25,1.25,0,0,0,21,16a24.26,24.26,0,0,0-5.14-1.64,1.36,1.36,0,0,0-.7.14l-1.08,1.72a2,2,0,0,1-2.75.17A26.09,26.09,0,0,1,8.4,13.84,26.61,26.61,0,0,1,5.9,10.9a2.33,2.33,0,0,1-.46-1.8,1.43,1.43,0,0,1,.64-1L7.84,7a2.06,2.06,0,0,0,.09-.64C7.44,4.56,6.76,2.62,6.23,1.14A2.5,2.5,0,0,0,5.58,1H5.47A10.58,10.58,0,0,0,1,4.27Z"/></svg>