<?xml version="1.0" standalone="no"?>
<!DOCTYPE svg PUBLIC "-//W3C//DTD SVG 20010904//EN"
 "http://www.w3.org/TR/2001/REC-SVG-20010904/DTD/svg10.dtd">
<svg version="1.0" xmlns="http://www.w3.org/2000/svg"
 width="512.000000pt" height="512.000000pt" viewBox="0 0 512.000000 512.000000"
 preserveAspectRatio="xMidYMid meet">
<metadata>
Created by potrace 1.11, written by Peter Selinger 2001-2013
</metadata>
<g transform="translate(0.000000,512.000000) scale(0.100000,-0.100000)"
fill="#000000" stroke="none">
<path d="M2379 5036 c-2 -2 -35 -6 -74 -10 -38 -3 -80 -8 -92 -10 -11 -3 -43
-8 -70 -11 -127 -18 -367 -88 -523 -152 -126 -52 -274 -128 -380 -195 -188
-118 -447 -345 -581 -508 -310 -377 -497 -806 -559 -1280 -13 -100 -17 -189
-14 -345 1 -115 5 -224 7 -240 3 -17 8 -50 11 -75 13 -106 62 -324 96 -420
106 -305 232 -541 416 -777 86 -110 293 -317 402 -403 254 -199 593 -375 847
-440 17 -5 55 -15 87 -24 31 -8 69 -18 85 -21 121 -22 160 -28 253 -40 101
-12 485 -13 555 -1 17 3 46 7 65 10 19 3 55 8 80 11 98 15 353 86 466 130 349
138 608 308 869 570 248 248 435 535 561 861 46 120 104 328 124 444 6 36 13
76 15 90 21 120 28 474 13 614 -43 394 -176 766 -393 1101 -188 289 -463 557
-771 753 -267 169 -665 313 -955 347 -26 3 -58 8 -70 11 -26 6 -464 15 -470
10z m470 -365 c41 -6 83 -13 95 -16 12 -3 32 -7 46 -9 264 -45 613 -201 850
-380 121 -91 286 -248 363 -346 29 -36 57 -71 64 -78 29 -30 145 -214 191
-302 119 -228 190 -461 228 -740 16 -119 10 -439 -11 -560 -3 -19 -10 -62 -16
-95 -50 -288 -199 -619 -395 -881 -77 -103 -248 -280 -349 -361 -325 -262
-734 -433 -1125 -470 -105 -10 -340 -10 -440 -1 -265 26 -564 117 -797 244
-479 261 -830 678 -1013 1204 -40 113 -84 316 -97 445 -10 98 -10 377 0 463
100 862 694 1569 1527 1816 47 14 96 27 110 30 14 3 59 12 100 20 41 8 111 18
155 21 44 4 82 9 84 11 8 8 361 -5 430 -15z"/>
<path d="M2578 3806 c-1 -2 -40 -6 -86 -9 -46 -3 -85 -7 -87 -9 -6 -6 -205
-417 -205 -423 0 -3 12 1 28 9 15 7 65 26 112 41 71 23 106 28 215 30 86 2
154 -2 200 -12 286 -60 495 -250 593 -538 24 -69 40 -150 44 -215 l3 -45
-1029 -1 -1030 0 -8 -29 c-10 -40 -2 -339 12 -405 52 -250 116 -407 235 -575
119 -168 325 -329 517 -406 65 -26 195 -66 240 -73 18 -3 43 -8 55 -10 80 -17
281 -22 393 -11 131 12 323 55 410 91 87 36 225 111 283 153 80 58 167 136
167 150 0 13 -189 271 -199 271 -4 0 -22 -16 -41 -35 -84 -87 -306 -212 -427
-240 -10 -3 -36 -9 -58 -14 -22 -5 -53 -13 -70 -17 -61 -13 -289 -12 -365 2
-394 74 -677 395 -713 810 -2 19 16 19 908 21 501 1 918 2 928 2 10 1 61 44
113 97 l96 95 -7 67 c-14 140 -27 213 -62 337 -146 514 -547 848 -1058 881
-44 3 -85 7 -92 9 -6 2 -13 2 -15 1z"/>
</g>
</svg>
