<svg id="Layer_1" data-name="Layer 1" xmlns="http://www.w3.org/2000/svg" width="47.34" height="47.34" viewBox="0 0 47.34 47.34"><defs><style>.cls-1{fill:#231f20;}</style></defs><title>logo-top</title><path class="cls-1" d="M23.67,47.34A23.67,23.67,0,1,1,47.34,23.67,23.7,23.7,0,0,1,23.67,47.34Zm0-44A20.33,20.33,0,1,0,44,23.67,20.35,20.35,0,0,0,23.67,3.34Z"/><path class="cls-1" d="M29.25,36.4a14.88,14.88,0,0,1-5.38.94,12.2,12.2,0,0,1-8.94-3.59,13,13,0,0,1-3.46-9.22,14.5,14.5,0,0,1,.09-1.63H31.25a8.5,8.5,0,0,0-2.33-5.64,7.45,7.45,0,0,0-5.49-2.15A7.49,7.49,0,0,0,19.8,16l2-4.12a12.3,12.3,0,0,1,1.7-.12,11,11,0,0,1,8.22,3.35A13.65,13.65,0,0,1,35.18,24v.06l-1.82,1.82H15.67a9,9,0,0,0,2.64,5.83A8.33,8.33,0,0,0,24.22,34a10.7,10.7,0,0,0,4-.8A9.83,9.83,0,0,0,31.57,31l.1-.11,1.95,2.65-.08.08a12.26,12.26,0,0,1-4.29,2.79Z"/></svg>