<svg id="Isolation_Mode" data-name="Isolation Mode" xmlns="http://www.w3.org/2000/svg" width="18.43mm" height="18.43mm" viewBox="0 0 52.23 52.23"><defs><style>.cls-1{fill:#4edffb;}</style></defs><title>logo-thanks</title><path class="cls-1" d="M26.12,52.23A26.12,26.12,0,1,1,52.23,26.12,26.15,26.15,0,0,1,26.12,52.23Zm0-48.54A22.43,22.43,0,1,0,48.54,26.12,22.45,22.45,0,0,0,26.12,3.69Z"/><path class="cls-1" d="M32.67,40.18a16.42,16.42,0,0,1-5.94,1,13.47,13.47,0,0,1-9.87-4A14.33,14.33,0,0,1,13,27.09a16,16,0,0,1,.1-1.79H34.85a9.37,9.37,0,0,0-2.57-6.22,8.21,8.21,0,0,0-6-2.37,8.26,8.26,0,0,0-4,1l2.19-4.54A13.56,13.56,0,0,1,26.29,13a12.15,12.15,0,0,1,9.06,3.69,15,15,0,0,1,3.84,9.83v.06l-2,2H17.68A9.93,9.93,0,0,0,20.59,35a9.2,9.2,0,0,0,6.53,2.49,11.81,11.81,0,0,0,4.45-.88,10.85,10.85,0,0,0,3.66-2.44l.11-.12L37.49,37l-.08.08a13.53,13.53,0,0,1-4.74,3.08Z"/></svg>